HIERARCHY
ROOT mixamorig_Hips
{
	OFFSET 0.000000 0.890477 -0.000138
	CHANNELS 6 Xposition Yposition Zposition Xrotation Yrotation Zrotation
	JOINT mixamorig_RightUpLeg
	{
		OFFSET -8.224193 -6.337456 -1.245509
		CHANNELS 3 Xrotation Yrotation Zrotation
		JOINT mixamorig_RightLeg
		{
			OFFSET -0.853740 -41.205795 -1.113445
			CHANNELS 3 Xrotation Yrotation Zrotation
			JOINT mixamorig_RightFoot
			{
				OFFSET 0.305346 -37.074059 5.547482
				CHANNELS 3 Xrotation Yrotation Zrotation
				JOINT mixamorig_RightToeBase
				{
					OFFSET 0.275999 -7.386046 -10.162342
					CHANNELS 3 Xrotation Yrotation Zrotation
					End Site
					{
						OFFSET 1.527623 -0.641087 -9.418583
					}
				}
			}
		}
	}
	JOINT mixamorig_LeftUpLeg
	{
		OFFSET 8.238425 -6.144493 -1.530489
		CHANNELS 3 Xrotation Yrotation Zrotation
		JOINT mixamorig_LeftLeg
		{
			OFFSET 0.999181 -40.793915 0.038145
			CHANNELS 3 Xrotation Yrotation Zrotation
			JOINT mixamorig_LeftFoot
			{
				OFFSET -1.148513 -38.134243 4.265069
				CHANNELS 3 Xrotation Yrotation Zrotation
				JOINT mixamorig_LeftToeBase
				{
					OFFSET -0.465251 -6.961702 -10.249644
					CHANNELS 3 Xrotation Yrotation Zrotation
					End Site
					{
						OFFSET -0.959344 -0.686551 -9.361076
					}
				}
			}
		}
	}
	JOINT mixamorig_Spine
	{
		OFFSET -0.012521 9.659492 0.152576
		CHANNELS 3 Xrotation Yrotation Zrotation
		JOINT mixamorig_Spine1
		{
			OFFSET 0.013316 9.940590 -0.620916
			CHANNELS 3 Xrotation Yrotation Zrotation
			JOINT mixamorig_Spine2
			{
				OFFSET -0.024142 10.082199 -0.544315
				CHANNELS 3 Xrotation Yrotation Zrotation
				JOINT mixamorig_Neck
				{
					OFFSET -0.280692 18.101685 -1.792333
					CHANNELS 3 Xrotation Yrotation Zrotation
					JOINT mixamorig_Head
					{
						OFFSET -0.018573 9.067642 0.460133
						CHANNELS 3 Xrotation Yrotation Zrotation
						End Site
						{
							OFFSET 0.158257 16.422226 3.010605
						}
					}
				}
				JOINT mixamorig_RightShoulder
				{
					OFFSET -4.418977 12.360168 -1.870196
					CHANNELS 3 Xrotation Yrotation Zrotation
					JOINT mixamorig_RightArm
					{
						OFFSET -0.840364 -0.706100 9.418602
						CHANNELS 3 Xrotation Yrotation Zrotation
						JOINT mixamorig_RightForeArm
						{
							OFFSET -2.498498 0.041534 25.943676
							CHANNELS 3 Xrotation Yrotation Zrotation
							JOINT mixamorig_RightHand
							{
								OFFSET -2.575367 0.795197 26.809452
								CHANNELS 3 Xrotation Yrotation Zrotation
								JOINT mixamorig_RightHandIndex1
								{
									OFFSET 3.136251 -0.538528 8.955254
									CHANNELS 3 Xrotation Yrotation Zrotation
									JOINT mixamorig_RightHandIndex2
									{
										OFFSET 0.051750 0.018234 3.880755
										CHANNELS 3 Xrotation Yrotation Zrotation
										JOINT mixamorig_RightHandIndex3
										{
											OFFSET 0.159386 -0.111511 2.528431
											CHANNELS 3 Xrotation Yrotation Zrotation
											End Site
											{
												OFFSET -0.186133 -0.129547 2.317834
											}
										}
									}
								}
								JOINT mixamorig_RightHandThumb1
								{
									OFFSET 3.146857 -1.651413 2.139514
									CHANNELS 3 Xrotation Yrotation Zrotation
									JOINT mixamorig_RightHandThumb2
									{
										OFFSET 0.227379 -1.950211 3.563250
										CHANNELS 3 Xrotation Yrotation Zrotation
										JOINT mixamorig_RightHandThumb3
										{
											OFFSET -0.284211 -0.956070 2.684949
											CHANNELS 3 Xrotation Yrotation Zrotation
											End Site
											{
												OFFSET -0.050027 -1.039322 2.580839
											}
										}
									}
								}
								JOINT mixamorig_RightHandMiddle1
								{
									OFFSET 0.842868 0.059799 9.204017
									CHANNELS 3 Xrotation Yrotation Zrotation
									JOINT mixamorig_RightHandMiddle2
									{
										OFFSET 0.007599 0.118408 3.598334
										CHANNELS 3 Xrotation Yrotation Zrotation
										JOINT mixamorig_RightHandMiddle3
										{
											OFFSET -0.157197 -0.125458 2.928855
											CHANNELS 3 Xrotation Yrotation Zrotation
											End Site
											{
												OFFSET 0.172696 -0.014359 2.626183
											}
										}
									}
								}
								JOINT mixamorig_RightHandRing1
								{
									OFFSET -1.001290 0.004471 8.712891
									CHANNELS 3 Xrotation Yrotation Zrotation
									JOINT mixamorig_RightHandRing2
									{
										OFFSET -0.114342 0.268219 2.619466
										CHANNELS 3 Xrotation Yrotation Zrotation
										JOINT mixamorig_RightHandRing3
										{
											OFFSET 0.155752 0.013962 2.934787
											CHANNELS 3 Xrotation Yrotation Zrotation
											End Site
											{
												OFFSET -0.022682 -0.334305 2.395091
											}
										}
									}
								}
								JOINT mixamorig_RightHandPinky1
								{
									OFFSET -2.870745 -0.520309 8.239086
									CHANNELS 3 Xrotation Yrotation Zrotation
									JOINT mixamorig_RightHandPinky2
									{
										OFFSET -0.064124 0.097565 3.353874
										CHANNELS 3 Xrotation Yrotation Zrotation
										JOINT mixamorig_RightHandPinky3
										{
											OFFSET 0.054191 -0.056305 1.657426
											CHANNELS 3 Xrotation Yrotation Zrotation
											End Site
											{
												OFFSET 0.034473 0.045517 1.902615
											}
										}
									}
								}
							}
						}
					}
				}
				JOINT mixamorig_LeftShoulder
				{
					OFFSET 4.067368 12.365417 -1.818083
					CHANNELS 3 Xrotation Yrotation Zrotation
					JOINT mixamorig_LeftArm
					{
						OFFSET 0.880652 -0.717896 9.769979
						CHANNELS 3 Xrotation Yrotation Zrotation
						JOINT mixamorig_LeftForeArm
						{
							OFFSET 2.551281 -0.093887 25.986422
							CHANNELS 3 Xrotation Yrotation Zrotation
							JOINT mixamorig_LeftHand
							{
								OFFSET 2.550158 0.834869 25.953165
								CHANNELS 3 Xrotation Yrotation Zrotation
								JOINT mixamorig_LeftHandIndex1
								{
									OFFSET -3.091449 -0.508453 8.774550
									CHANNELS 3 Xrotation Yrotation Zrotation
									JOINT mixamorig_LeftHandIndex2
									{
										OFFSET 0.036697 0.078873 3.768008
										CHANNELS 3 Xrotation Yrotation Zrotation
										JOINT mixamorig_LeftHandIndex3
										{
											OFFSET -0.146443 -0.119202 2.548758
											CHANNELS 3 Xrotation Yrotation Zrotation
											End Site
											{
												OFFSET 0.171421 0.029297 2.617404
											}
										}
									}
								}
								JOINT mixamorig_LeftHandThumb1
								{
									OFFSET -3.148789 -1.646713 2.206965
									CHANNELS 3 Xrotation Yrotation Zrotation
									JOINT mixamorig_LeftHandThumb2
									{
										OFFSET 0.080562 -1.997971 3.556270
										CHANNELS 3 Xrotation Yrotation Zrotation
										JOINT mixamorig_LeftHandThumb3
										{
											OFFSET 0.511188 -1.178329 2.869402
											CHANNELS 3 Xrotation Yrotation Zrotation
											End Site
											{
												OFFSET -0.395684 -1.027771 2.132432
											}
										}
									}
								}
								JOINT mixamorig_LeftHandMiddle1
								{
									OFFSET -0.779669 -0.015396 9.112029
									CHANNELS 3 Xrotation Yrotation Zrotation
									JOINT mixamorig_LeftHandMiddle2
									{
										OFFSET 0.052194 -0.112549 3.389368
										CHANNELS 3 Xrotation Yrotation Zrotation
										JOINT mixamorig_LeftHandMiddle3
										{
											OFFSET 0.178288 -0.162537 3.259809
											CHANNELS 3 Xrotation Yrotation Zrotation
											End Site
											{
												OFFSET -0.168278 0.311600 2.538658
											}
										}
									}
								}
								JOINT mixamorig_LeftHandRing1
								{
									OFFSET 1.087882 0.018982 8.604859
									CHANNELS 3 Xrotation Yrotation Zrotation
									JOINT mixamorig_LeftHandRing2
									{
										OFFSET 0.149309 0.141083 2.758817
										CHANNELS 3 Xrotation Yrotation Zrotation
										JOINT mixamorig_LeftHandRing3
										{
											OFFSET -0.068528 -0.036240 2.975783
											CHANNELS 3 Xrotation Yrotation Zrotation
											End Site
											{
												OFFSET -0.030775 -0.086090 2.514544
											}
										}
									}
								}
								JOINT mixamorig_LeftHandPinky1
								{
									OFFSET 2.960986 -0.570038 8.064888
									CHANNELS 3 Xrotation Yrotation Zrotation
									JOINT mixamorig_LeftHandPinky2
									{
										OFFSET 0.094121 0.094238 2.893586
										CHANNELS 3 Xrotation Yrotation Zrotation
										JOINT mixamorig_LeftHandPinky3
										{
											OFFSET -0.031188 0.050095 1.974020
											CHANNELS 3 Xrotation Yrotation Zrotation
											End Site
											{
												OFFSET -0.027014 0.187729 1.913422
											}
										}
									}
								}
							}
						}
					}
				}
			}
		}
	}
}
MOTION
Frames: 7
Frame Time: 0.03333333333333333
-7.129944 -4.307584 0.267207 0.000000 0.890477 -0.000138 -172.112481 83.052081 170.465616 -14.791824 69.968422 17.485700 2.060100 11.349348 3.829388 -1.223925 3.948696 0.710282 -0.522763 7.118978 -2.587640 -175.237885 -23.392579 176.452669 3.243467 -38.511598 -2.430578 -1.774133 -0.367147 3.571451 1.389452 1.144957 -0.992841 5.349808 -2.139399 -2.361907 2.181356 0.676679 -0.586072 1.934315 1.058657 1.587223 3.183761 3.806207 0.811751 18.933005 -78.074174 20.228901 49.107153 21.049600 -22.624040 93.663582 55.244475 -79.876540 9.716549 -5.871861 1.305630 8.186653 6.256327 0.036857 -0.119383 -7.630878 -0.058042 9.446445 -3.375213 -4.049922 -6.651457 24.822718 -4.996907 -5.831886 -0.597720 2.722495 -6.286700 1.785052 -1.164094 11.360899 6.535225 -2.176919 1.394648 0.254701 -2.480306 3.385643 3.187029 -1.595775 7.377571 8.446953 1.143446 -1.207027 -2.983003 -2.002549 19.990564 4.711203 0.611994 14.941248 9.349258 -1.934965 -1.930017 0.635087 -0.572378 5.152298 2.058511 1.233189 -13.393384 86.907777 18.389812 54.700497 -23.436598 36.404386 84.429948 -61.558512 90.785323 -5.109965 -6.119357 -19.197542 14.077805 -8.232596 6.461354 1.251476 1.612058 0.670183 13.889648 -4.956535 1.990730 -17.455809 -9.758517 -40.281477 3.290464 -2.391303 27.161171 -9.767263 25.641828 -1.544888 5.580615 -9.771772 -8.977136 8.199065 -0.824285 6.150999 21.663495 2.713626 0.764747 10.542628 -4.739180 4.814566 0.784538 -3.417083 3.233446 14.400506 -0.194787 -1.027464 9.645382 -2.616347 0.335876 2.631124 -0.490000 -1.364735 12.124299 -1.503385 4.310629 
-7.129944 -4.307584 0.267207 0.000000 0.890477 -0.000138 -172.112481 83.052081 170.465616 -14.814017 69.979771 17.503217 2.053755 11.352332 3.835606 -1.232837 3.950853 0.710717 -0.522763 7.118978 -2.587640 -175.230916 -23.389938 176.462563 3.245043 -38.518030 -2.430621 -1.766942 -0.365648 3.564265 1.389658 1.153811 -0.987959 5.349808 -2.139399 -2.361907 2.181356 0.676679 -0.586072 1.927723 1.058533 1.585229 3.183761 3.806207 0.811751 18.933005 -78.074174 20.228901 49.107153 21.049600 -22.624040 93.663582 55.244475 -79.876540 9.716549 -5.871861 1.305630 8.172006 6.255274 0.042533 -0.118308 -7.618084 -0.044923 9.446445 -3.375213 -4.049922 -6.677051 24.807273 -4.891653 -5.836378 -0.577049 2.701596 -6.291722 1.814812 -1.151221 11.347721 6.539062 -2.158617 1.394648 0.254701 -2.480306 3.382039 3.180835 -1.593380 7.377571 8.446953 1.143446 -1.207027 -2.983003 -2.002549 19.954123 4.709853 0.610001 14.926864 9.338530 -1.931363 -1.941851 0.634259 -0.569841 5.152298 2.058511 1.233189 -13.393384 86.907777 18.389812 54.700497 -23.436598 36.404386 84.351018 -61.491080 90.706820 -5.109965 -6.119357 -19.197542 14.077805 -8.232596 6.461354 1.251476 1.612058 0.670183 13.889648 -4.956535 1.990730 -17.455809 -9.758517 -40.281477 3.290464 -2.391303 27.161171 -9.767263 25.641828 -1.544888 5.575123 -9.768568 -8.968074 8.199065 -0.824285 6.150999 21.663495 2.713626 0.764747 10.542628 -4.739180 4.814566 0.784538 -3.417083 3.233446 14.400506 -0.194787 -1.027464 9.645382 -2.616347 0.335876 2.631124 -0.490000 -1.364735 12.124299 -1.503385 4.310629 
-7.129944 -4.307584 0.267207 0.000000 0.890477 -0.000138 -172.112481 83.052081 170.465616 -15.377903 70.256114 17.953200 1.894404 11.415106 3.990517 -1.444371 4.005464 0.718002 -0.522763 7.118978 -2.587640 -175.052693 -23.317496 176.701997 3.290734 -38.671605 -2.423179 -1.589178 -0.336606 3.398655 1.394131 1.376461 -0.872822 5.349808 -2.139399 -2.361907 2.181356 0.676679 -0.586072 1.790286 1.070433 1.557857 3.183761 3.806207 0.811751 18.933005 -78.074174 20.228901 49.107153 21.049600 -22.624040 93.663582 55.244475 -79.876540 9.716549 -5.871861 1.305630 7.805859 6.228473 0.184347 -0.092418 -7.298175 0.282853 9.446445 -3.375213 -4.049922 -7.305474 24.407424 -2.267043 -5.946201 -0.059729 2.179620 -6.419481 2.558464 -0.828457 11.017829 6.633628 -1.700742 1.394648 0.254701 -2.480306 3.292024 3.025951 -1.533649 7.377571 8.446953 1.143446 -1.207027 -2.983003 -2.002549 19.043100 4.676526 0.559919 14.567619 9.070018 -1.842222 -2.237697 0.613385 -0.506484 5.152298 2.058511 1.233189 -13.393384 86.907777 18.389812 54.700497 -23.436598 36.404386 84.267201 -61.476276 90.642453 -5.109965 -6.119357 -19.197542 14.077805 -8.232596 6.461354 1.251476 1.612058 0.670183 13.889648 -4.956535 1.990730 -17.455809 -9.758517 -40.281477 3.290464 -2.391303 27.161171 -9.767263 25.641828 -1.544888 5.437678 -9.688756 -8.741444 8.199065 -0.824285 6.150999 21.663495 2.713626 0.764747 10.542628 -4.739180 4.814566 0.784538 -3.417083 3.233446 14.400506 -0.194787 -1.027464 9.645382 -2.616347 0.335876 2.631124 -0.490000 -1.364735 12.124299 -1.503385 4.310629 
-7.129944 -4.307584 0.267207 0.000000 0.890477 -0.000138 -172.112481 83.052081 170.465616 -15.965789 70.448409 18.468619 1.738660 11.348986 4.120825 -1.515697 4.068400 0.682169 -0.522763 7.118978 -2.587640 -174.834270 -23.172672 176.840973 3.402171 -38.739704 -2.321578 -1.429937 -0.398536 3.410312 1.393850 1.594398 -0.832042 5.349808 -2.139399 -2.361907 2.181356 0.676679 -0.586072 1.652849 1.082399 1.530512 3.183761 3.806207 0.811751 18.933005 -78.074174 20.228901 49.107153 21.049600 -22.624040 93.663582 55.244475 -79.876540 9.716549 -5.871861 1.305630 7.439773 6.200750 0.325978 -0.068391 -6.978136 0.610254 9.446445 -3.375213 -4.049922 -7.911100 23.981888 0.344286 -6.051289 0.458600 1.658578 -6.551511 3.301414 -0.503805 10.687135 6.725579 -1.242241 1.394648 0.254701 -2.480306 3.202186 2.870976 -1.474171 7.377571 8.446953 1.143446 -1.207027 -2.983003 -2.002549 18.132074 4.643992 0.509312 14.209048 8.800951 -1.754850 -2.533520 0.592186 -0.443236 5.152298 2.058511 1.233189 -13.393384 86.907777 18.389812 54.700497 -23.436598 36.404386 84.183456 -61.461427 90.578160 -5.109965 -6.119357 -19.197542 14.077805 -8.232596 6.461354 1.251476 1.612058 0.670183 13.889648 -4.956535 1.990730 -17.455809 -9.758517 -40.281477 3.290464 -2.391303 27.161171 -9.767263 25.641828 -1.544888 5.299952 -9.609485 -8.514683 8.199065 -0.824285 6.150999 21.663495 2.713626 0.764747 10.542628 -4.739180 4.814566 0.784538 -3.417083 3.233446 14.400506 -0.194787 -1.027464 9.645382 -2.616347 0.335876 2.631124 -0.490000 -1.364735 12.124299 -1.503385 4.310629 
-7.129944 -4.307584 0.267207 0.000000 0.890477 -0.000138 -172.112481 83.052081 170.465616 -16.528719 70.584110 19.004241 1.653424 11.317798 4.120969 -1.508678 4.138759 0.632562 -0.522763 7.118978 -2.587640 -174.675218 -23.015786 176.897908 3.467608 -38.790121 -2.239846 -1.241361 -0.446748 3.541236 1.411136 1.675611 -0.776410 5.349808 -2.139399 -2.361907 2.181356 0.676679 -0.586072 1.515411 1.094432 1.503195 3.183761 3.806207 0.811751 18.933005 -78.074174 20.228901 49.107153 21.049600 -22.624040 93.663582 55.244475 -79.876540 9.716549 -5.871861 1.305630 7.073755 6.172108 0.467418 -0.046221 -6.657977 0.937304 9.446445 -3.375213 -4.049922 -8.492854 23.531682 2.941964 -6.151649 0.977887 1.138389 -6.687861 4.043629 -0.177154 10.355660 6.814903 -0.783128 1.394648 0.254701 -2.480306 3.112522 2.715909 -1.414944 7.377571 8.446953 1.143446 -1.207027 -2.983003 -2.002549 17.221044 4.612260 0.458195 13.851136 8.531342 -1.669244 -2.829323 0.570660 -0.380098 5.152298 2.058511 1.233189 -13.393384 86.907777 18.389812 54.700497 -23.436598 36.404386 84.099784 -61.446533 90.513941 -5.109965 -6.119357 -19.197542 14.077805 -8.232596 6.461354 1.251476 1.612058 0.670183 13.889648 -4.956535 1.990730 -17.455809 -9.758517 -40.281477 3.290464 -2.391303 27.161171 -9.767263 25.641828 -1.544888 5.161948 -9.530758 -8.287791 8.199065 -0.824285 6.150999 21.663495 2.713626 0.764747 10.542628 -4.739180 4.814566 0.784538 -3.417083 3.233446 14.400506 -0.194787 -1.027464 9.645382 -2.616347 0.335876 2.631124 -0.490000 -1.364735 12.124299 -1.503385 4.310629 
-7.129944 -4.307584 0.267207 0.000000 0.890477 -0.000138 -172.112481 83.052081 170.465616 -17.173896 70.673001 19.575699 1.567182 11.303162 4.072831 -1.502723 4.220221 0.547127 -0.522763 7.118978 -2.587640 -174.528684 -22.888895 176.962372 3.525380 -38.824053 -2.154804 -1.111164 -0.510181 3.675259 1.449875 1.781608 -0.815582 5.349808 -2.139399 -2.361907 2.181356 0.676679 -0.586072 1.377974 1.106530 1.475906 3.183761 3.806207 0.811751 18.933005 -78.074174 20.228901 49.107153 21.049600 -22.624040 93.663582 55.244475 -79.876540 9.716549 -5.871861 1.305630 6.707809 6.142548 0.608661 -0.025905 -6.337708 1.264025 9.446445 -3.375213 -4.049922 -9.049757 23.057860 5.525717 -6.247286 1.498086 0.618973 -6.828583 4.785077 0.151607 10.023423 6.901592 -0.323416 1.394648 0.254701 -2.480306 3.023031 2.560751 -1.355969 7.377571 8.446953 1.143446 -1.207027 -2.983003 -2.002549 16.310011 4.581336 0.406581 13.493868 8.261203 -1.585399 -3.125104 0.548809 -0.317074 5.152298 2.058511 1.233189 -13.393384 86.907777 18.389812 54.700497 -23.436598 36.404386 84.016185 -61.431594 90.449797 -5.109965 -6.119357 -19.197542 14.077805 -8.232596 6.461354 1.251476 1.612058 0.670183 13.889648 -4.956535 1.990730 -17.455809 -9.758517 -40.281477 3.290464 -2.391303 27.161171 -9.767263 25.641828 -1.544888 5.023666 -9.452576 -8.060768 8.199065 -0.824285 6.150999 21.663495 2.713626 0.764747 10.542628 -4.739180 4.814566 0.784538 -3.417083 3.233446 14.400506 -0.194787 -1.027464 9.645382 -2.616347 0.335876 2.631124 -0.490000 -1.364735 12.124299 -1.503385 4.310629 
-7.129944 -4.307584 0.267207 0.000000 0.890477 -0.000138 -172.112481 83.052081 170.465616 -17.390276 70.728061 19.791900 1.605233 11.399235 3.982194 -1.504959 4.229153 0.500378 -0.522763 7.118978 -2.587640 -174.432131 -22.830329 177.041451 3.529464 -38.843418 -2.144642 -1.012820 -0.473727 3.621249 1.330603 1.833547 -0.792615 5.349808 -2.139399 -2.361907 2.181356 0.676679 -0.586072 1.240537 1.118694 1.448645 3.183761 3.806207 0.811751 18.933005 -78.074174 20.228901 49.107153 21.049600 -22.624040 93.663582 55.244475 -79.876540 9.716549 -5.871861 1.305630 6.341941 6.112072 0.749699 -0.007437 -6.017337 1.590439 9.446445 -3.375213 -4.049922 -9.580925 22.561514 8.095363 -6.338205 2.019147 0.100252 -6.973730 5.525725 0.482589 9.690445 6.985638 0.136880 1.394648 0.254701 -2.480306 2.933713 2.405502 -1.297244 7.377571 8.446953 1.143446 -1.207027 -2.983003 -2.002549 15.398977 4.551231 0.354482 13.137228 7.990545 -1.503311 -3.420865 0.526634 -0.254163 5.152298 2.058511 1.233189 -13.393384 86.907777 18.389812 54.700497 -23.436598 36.404386 83.932658 -61.416609 90.385728 -5.109965 -6.119357 -19.197542 14.077805 -8.232596 6.461354 1.251476 1.612058 0.670183 13.889648 -4.956535 1.990730 -17.455809 -9.758517 -40.281477 3.290464 -2.391303 27.161171 -9.767263 25.641828 -1.544888 4.885108 -9.374940 -7.833614 8.199065 -0.824285 6.150999 21.663495 2.713626 0.764747 10.542628 -4.739180 4.814566 0.784538 -3.417083 3.233446 14.400506 -0.194787 -1.027464 9.645382 -2.616347 0.335876 2.631124 -0.490000 -1.364735 12.124299 -1.503385 4.310629 
